<svg xmlns="http://www.w3.org/2000/svg" width="1080" height="1080"><path d="M0 0h1080v1080H0V0z" fill="#C1121F"/><path d="M343 246h394c48.993 146.857 48.993 146.857 67.726 203.033a3981371.637 3981371.637 0 0016.474 49.4c9.454 28.35 18.911 56.7 28.37 85.048a403221.582 403221.582 0 0133.255 99.708l.817 2.451c4.349 13.044 8.701 26.087 13.055 39.13 4.372 13.098 8.74 26.198 13.106 39.299 2.597 7.792 5.196 15.583 7.799 23.373 1.938 5.804 3.873 11.61 5.805 17.416.786 2.358 1.573 4.716 2.362 7.074 1.066 3.186 2.126 6.374 3.186 9.563l.948 2.82.847 2.561.737 2.211C932 831 932 831 932 834H148c.707-4.95 1.403-8.708 2.942-13.322l1.236-3.734 1.366-4.063 1.445-4.348c1.322-3.977 2.652-7.952 3.982-11.926 1.436-4.291 2.864-8.585 4.294-12.878 2.803-8.417 5.613-16.832 8.426-25.247 3.286-9.833 6.565-19.669 9.844-29.505 5.867-17.595 11.739-35.188 17.614-52.78 5.672-16.986 11.342-33.973 17.007-50.962l1.053-3.155 4.19-12.566a305379.688 305379.688 0 0131.486-94.36l4.252-12.738.807-2.42 1.443-4.325C266.815 473.408 274.416 451.21 282 429l61-183z" fill="#FEBC58"/><path d="M408 374c28.147-.047 56.295-.082 84.442-.104 13.07-.01 26.14-.024 39.211-.047 11.398-.02 22.795-.033 34.192-.037 6.03-.003 12.06-.009 18.09-.023 5.687-.014 11.373-.018 17.06-.015 2.076 0 4.153-.005 6.23-.012 25.447-.09 52.35 1.476 71.74 20.11 1.633 1.707 3.176 3.417 4.66 5.253 2.015 2.439 3.92 4.28 6.313 6.313 9.65 8.328 17.194 19.457 18.313 32.483.689 14.754.736 27.866-6.251 41.079l-1.57 3.168c-28.03 52.337-99.253 73.747-151.305 91.207l-3.763 1.264c-19.428 6.452-19.428 6.452-26.362 6.361.06 15.83.138 31.66.236 47.49.045 7.351.084 14.702.11 22.053.024 6.413.057 12.825.103 19.237.024 3.39.042 6.781.049 10.172.01 3.799.037 7.596.07 11.395l-.005 3.354c.09 7.486 1.394 14.114 3.437 21.299l.436 2.19c.47 2.186.47 2.186 2.564 4.81 3.926 1.491 7.862 2.326 12 3v5l-6 1c7.163 5.182 13.148 8.161 22 9v5H424v-5l3.438-.75c6.57-1.645 12.145-4.187 17.562-8.25l-37-1v-5l3.148-.777c10.437-2.779 18.777-6.245 24.497-16.04A88.657 88.657 0 00439 701l1.25-3.188c1.905-7.142 1.897-14.336 1.89-21.675l.01-3.25c.008-3.58.01-7.162.011-10.744l.015-7.719c.014-6.984.02-13.968.024-20.952.003-4.369.007-8.737.012-13.106.012-12.118.022-24.236.026-36.354v-2.348a409999991.17 409999991.17 0 00.002-7.072v-2.364c.005-12.623.022-25.246.046-37.869.023-12.989.036-25.977.037-38.966 0-7.281.006-14.562.025-21.843.017-6.857.018-13.713.01-20.57-.001-2.505.003-5.01.013-7.515.485-24.383.485-24.383-6.371-47.465-2.63-1.432-2.63-1.432-5.625-1.875-5.362-1.112-5.362-1.112-6.375-2.125a99.984 99.984 0 010-5l5-1c-6.61-4.666-13.224-6.878-21-9v-5z" fill="#C1121F"/><path d="M1079 814h1v266H811v-1l1.683-.104c23.644-1.552 46.772-5.533 69.317-12.896l2.927-.952c41.748-13.81 78.32-36.78 110.073-67.048l2.422-2.297c4.8-4.667 9.091-9.608 13.27-14.836 2.337-2.904 4.756-5.725 7.183-8.554 9.619-11.543 17.727-24.256 25.125-37.313l1.198-2.102c10.635-18.854 18.578-39.184 24.802-59.898l1.074-3.535c2.604-9.458 4.095-19.1 5.613-28.778l.33-2.096c1.275-8.176 2.371-16.335 2.983-24.591zM813 0h267v268h-1l-.212-2.452c-1.387-15.721-2.82-31.23-6.788-46.548l-.734-2.883C1061.053 176.524 1043.779 139.878 1018 108l-2.426-3.066c-11.242-14.038-23.722-27.519-37.898-38.613-1.927-1.519-3.832-3.063-5.739-4.606-9.509-7.627-19.245-14.38-29.8-20.479a546.058 546.058 0 01-6.051-3.564C912.03 23.529 884.443 12.385 857 7l-2.55-.506C840.695 3.82 826.968 2.095 813 1V0zM0 815h1l.304 2.56C4.033 840.98 4.033 840.98 9 864l.73 2.733C20.139 905.193 36.656 941.033 62 972l1.457 1.787c11.767 14.35 24.23 28.352 38.835 39.86 1.937 1.535 3.857 3.091 5.778 4.646 10.17 8.153 20.647 15.198 31.93 21.707l4.02 2.363c36.362 21.151 78.774 34.959 120.98 36.637v1H0V815zM0 0h266v1l-2.117.228C206.418 7.47 153.474 25.226 108 62l-3.066 2.426C90.287 76.156 76.542 89.19 65 104l-1.493 1.9C26.145 153.525 5.768 207.762 1 268H0V0z" fill="#FEFEFE"/><path d="M617 419l2.777.941c7.85 2.872 7.85 2.872 10.223 7.059 4.303 13.69 2.946 27.695-3.215 40.531C606.993 503.79 557.7 522.781 521 535h-2c-.07-11.77-.123-23.541-.155-35.312a4830.87 4830.87 0 00-.071-16.4c-.033-5.285-.05-10.57-.059-15.854-.005-2.007-.016-4.014-.032-6.021-.214-27.373-.214-27.373 6.505-35.976C544.12 406.74 593.524 410.824 617 419z" fill="#FEBC58"/><path d="M684 401c11.78 7.068 19.658 17.942 23.405 31.14 3.247 15.598 2.054 32.755-5.405 46.86l-1.57 3.168c-28.03 52.337-99.253 73.747-151.305 91.207l-3.763 1.264c-19.428 6.452-19.428 6.452-26.362 6.361.06 15.83.138 31.66.236 47.49.045 7.351.084 14.702.11 22.053.024 6.413.057 12.825.103 19.237.024 3.39.042 6.781.049 10.172.01 3.799.037 7.596.07 11.395l-.005 3.354c.078 6.498.929 12.275 2.698 18.533.776 2.906 1.286 5.794 1.739 8.766-6.094-1.662-10.125-6.082-13.453-11.262-7.238-13.538-7.714-28.447-7.66-43.473l-.001-3.346c0-3.603.008-7.206.016-10.81l.005-7.549c.003-5.917.01-11.835.021-17.752.012-7.409.018-14.817.023-22.226.01-13.194.028-26.388.049-39.582l1.758-.498c15.018-4.234 15.018-4.234 29.926-8.834l2.622-.842c2.712-.874 5.422-1.755 8.131-2.639.94-.305 1.878-.611 2.845-.927 13.835-4.523 27.441-9.269 40.718-15.26l3.083-1.365c39.695-17.616 79.293-38.993 97.241-80.713 5.283-14.458 4.022-31.633-1.324-45.922a212.363 212.363 0 00-4-6v-2zM618.117 412.313c3.766 3.243 6.902 6.067 8.883 10.687l-1.8-.55a755.633 755.633 0 00-5.317-1.59c-1.783-.532-3.56-1.08-5.328-1.657-15.935-4.895-33.056-4.621-49.555-4.203l-3.941.09c-11.094.517-25.513 2.105-34.059 9.91-9.264 10.458-7.47 26.272-7.512 39.395l-.054 6.132c-.047 5.338-.077 10.675-.104 16.013-.03 5.464-.076 10.928-.121 16.392-.086 10.689-.153 21.378-.209 32.068a564.54 564.54 0 01-4.625 1.938l-2.602 1.09c-2.919 1.023-5.714 1.546-8.773 1.972-.07-14.083-.123-28.166-.155-42.25-.016-6.54-.037-13.08-.071-19.621a4784.79 4784.79 0 01-.059-18.966c-.005-2.402-.016-4.804-.032-7.205-.214-32.904-.214-32.904 6.442-41.646 7.937-7.592 18.453-8.66 28.875-10.312l3.191-.563c24.47-2.81 56.302-2.424 76.926 12.875z" fill="#A27638"/><path d="M454.212 730.435l2.465-.036a655.2 655.2 0 018.053-.036 1790.108 1790.108 0 0117.413-.05c5.017.007 10.031-.037 15.047-.095 3.873-.037 7.747-.042 11.62-.038 1.848-.003 3.696-.017 5.544-.042 11.02-.137 18.108.172 26.646 7.862 4.257 1.836 8.405 2.449 13 3v5H424v-5l3.438-.75c5.62-1.415 11.447-3.218 15.685-7.29 3.696-2.518 6.768-2.544 11.089-2.525z" fill="#A17537"/><path d="M424 389c3.188-.375 3.188-.375 7 0 2.247 1.802 3.38 3.545 5 6v2c-1.813-.308-3.626-.621-5.438-.938l-3.058-.527C425 395 425 395 424 394a99.984 99.984 0 010-5z" fill="#A67738"/></svg>